<svg width="131" height="54" viewBox="0 0 131 54" fill="none" xmlns="http://www.w3.org/2000/svg">
<g clip-path="url(#clip0_1078_122)">
<path d="M54.881 23.5581C57.7334 23.5581 59.1596 22.0258 59.1596 18.9611C59.1596 15.9601 57.836 14.4596 55.1889 14.4596H53.6176V23.5581H54.881ZM55.0403 12.0283C57.3123 12.0283 59.0782 12.6299 60.3381 13.8332C61.605 15.0293 62.2385 16.7457 62.2385 18.9823C62.2385 21.2118 61.5838 22.9388 60.2744 24.1633C58.965 25.3878 57.0752 26 54.605 26H50.6556V12.0283H55.0403ZM67.0462 20.6385V26H64.0841V12.0283H68.1503C70.0401 12.0283 71.4415 12.3751 72.3545 13.0688C73.2747 13.7553 73.7347 14.8028 73.7347 16.2113C73.7347 17.0324 73.5082 17.7649 73.0553 18.409C72.6093 19.046 71.9688 19.5485 71.1336 19.9166C73.2357 23.0521 74.6053 25.0799 75.2423 26H71.9511L68.6174 20.6385H67.0462ZM67.0462 14.4596V18.2285H68.0017C68.9359 18.2285 69.626 18.0728 70.0719 17.7614C70.5178 17.4499 70.7408 16.9651 70.7408 16.3069C70.7408 15.6486 70.5143 15.178 70.0613 14.8948C69.6154 14.6047 68.9076 14.4596 67.938 14.4596H67.0462ZM78.9161 26H75.954V12.0283H78.9161V26ZM86.7035 20.3413L89.347 12.0283H92.341L87.5953 26H84.3572L79.6221 12.0283H82.616L85.2383 20.3413C85.3658 20.773 85.5108 21.3286 85.6736 22.0081C85.8435 22.6876 85.9461 23.1582 85.9815 23.4201C86.0594 22.7831 86.3 21.7568 86.7035 20.3413ZM96.0114 26H93.0493V12.0283H96.0114V26ZM104.404 14.3003C103.293 14.3003 102.429 14.7179 101.813 15.5531C101.205 16.3953 100.9 17.5632 100.9 19.0566C100.9 22.1709 102.068 23.728 104.404 23.728C105.395 23.728 106.584 23.4838 107.971 22.9954V25.4798C106.832 25.954 105.551 26.1911 104.128 26.1911C102.097 26.1911 100.543 25.5753 99.4671 24.3438C98.3913 23.1052 97.8534 21.3357 97.8534 19.0354C97.8321 16.8554 98.4196 15.1036 99.6158 13.7801C100.819 12.4494 102.415 11.7983 104.404 11.8266C105.763 11.8266 107.129 12.1557 108.502 12.814L107.547 15.224C106.251 14.6082 105.204 14.3003 104.404 14.3003ZM121.343 12.0283V26H118.392V19.9697H112.861V26H109.899V12.0283H112.861V17.5066H118.392V12.0283H121.343Z" fill="#1B1B1C"/>
<path d="M54.2081 38.0971H58.7202L57.0958 33.7654C56.8764 33.1709 56.6605 32.4985 56.4482 31.7482C56.3208 32.3286 56.1226 33.001 55.8537 33.7654L54.2081 38.0971ZM62.6484 44H60.971L59.2298 39.5622H53.6348L51.9148 44H50.2692L55.79 29.9752H57.1595L62.6484 44ZM75.5957 30.0283H77.2201V39.0738C77.2201 40.6663 76.7388 41.9191 75.7762 42.8322C74.8136 43.7381 73.4936 44.1911 71.8161 44.1911C70.1387 44.1911 68.8363 43.7346 67.9091 42.8215C66.989 41.9014 66.529 40.638 66.529 39.0313V30.0283H68.1533V39.1481C68.1533 40.3231 68.4718 41.2219 69.1088 41.8448C69.7529 42.4606 70.6766 42.7685 71.8798 42.7685C73.0831 42.7685 74.0032 42.4535 74.6402 41.8236C75.2772 41.1936 75.5957 40.2947 75.5957 39.1269V30.0283ZM87.3303 31.4722V44H85.706V31.4722H81.2788V30.0283H91.7575V31.4722H87.3303ZM96.5139 42.3119C95.3956 41.045 94.8364 39.272 94.8364 36.9929C94.8364 34.7068 95.3956 32.9408 96.5139 31.6951C97.6393 30.4424 99.2176 29.816 101.249 29.816C103.287 29.816 104.869 30.453 105.995 31.727C107.127 32.9939 107.693 34.7492 107.693 36.9929C107.693 39.2295 107.127 40.9884 105.995 42.2695C104.862 43.5506 103.277 44.1911 101.238 44.1911C99.207 44.1911 97.6322 43.5647 96.5139 42.3119ZM104.795 32.7144C104.009 31.7447 102.841 31.2599 101.291 31.2599C99.7485 31.2599 98.5736 31.7482 97.7667 32.725C96.9598 33.7017 96.5564 35.1314 96.5564 37.0142C96.5564 38.8898 96.9598 40.3195 97.7667 41.3033C98.5736 42.2801 99.7485 42.7685 101.291 42.7685C102.834 42.7685 103.999 42.2836 104.784 41.314C105.577 40.3372 105.973 38.9039 105.973 37.0142C105.973 35.1173 105.581 33.684 104.795 32.7144ZM120.784 40.2841C120.784 41.5157 120.338 42.4747 119.446 43.1613C118.562 43.8478 117.319 44.1911 115.72 44.1911C114.127 44.1911 112.885 43.9788 111.993 43.5541V41.9828C113.253 42.5066 114.548 42.7685 115.879 42.7685C116.948 42.7685 117.758 42.5667 118.31 42.1633C118.869 41.7599 119.149 41.183 119.149 40.4328C119.149 39.9515 119.05 39.5586 118.852 39.2543C118.661 38.9499 118.335 38.6633 117.875 38.3943C117.415 38.1254 116.725 37.8281 115.805 37.5025C114.509 37.0425 113.579 36.4939 113.012 35.8569C112.453 35.2199 112.174 34.3741 112.174 33.3195C112.174 32.2649 112.577 31.4191 113.384 30.7821C114.205 30.1451 115.292 29.8266 116.643 29.8266C118.002 29.8266 119.266 30.0814 120.434 30.591L119.924 32.0137C118.77 31.5253 117.652 31.2811 116.569 31.2811C115.706 31.2811 115.03 31.4687 114.541 31.8438C114.06 32.2118 113.819 32.7214 113.819 33.3726C113.819 33.868 113.904 34.2644 114.074 34.5617C114.251 34.8589 114.555 35.1456 114.987 35.4216C115.433 35.6906 116.084 35.9737 116.941 36.271C118.413 36.7947 119.418 37.3574 119.956 37.959C120.508 38.5536 120.784 39.3286 120.784 40.2841Z" fill="#1B1B1C"/>
<path d="M45.8749 40.0072C48.2867 45.9885 42.0127 51.7724 36.2468 48.8832L6.32755 33.8908C1.4045 31.4239 1.12589 24.5011 5.83478 21.6466L35.4281 3.70688C41.1196 0.256673 47.9606 5.94843 45.603 12.1725L41.2677 23.6178C40.6444 25.2633 40.6636 27.0832 41.3217 28.7152L45.8749 40.0072Z" fill="url(#paint0_linear_1078_122)"/>
<path d="M128 11L128 44" stroke="black" stroke-width="2" stroke-linecap="round"/>
</g>
<defs>
<linearGradient id="paint0_linear_1078_122" x1="59.0247" y1="9.71016" x2="4.95831" y2="44.0302" gradientUnits="userSpaceOnUse">
<stop stop-color="#3D0066"/>
<stop offset="0.5" stop-color="#7A24AD"/>
<stop offset="1" stop-color="#4A19D3"/>
</linearGradient>
<clipPath id="clip0_1078_122">
<rect width="131" height="54" fill="white"/>
</clipPath>
</defs>
</svg>
